<?xml version="1.0" encoding="UTF-8" ?>
<!DOCTYPE svg PUBLIC "-//W3C//DTD SVG 1.1//EN" "http://www.w3.org/Graphics/SVG/1.1/DTD/svg11.dtd">
<svg width="603pt" height="599pt" viewBox="0 0 603 599" version="1.1" xmlns="http://www.w3.org/2000/svg">
<g id="#f16821ff">
<path fill="#f16821" opacity="1.00" d=" M 266.67 2.11 C 283.70 0.11 300.88 0.44 318.00 0.61 C 354.35 2.16 390.14 11.37 423.51 25.66 C 438.95 33.03 454.38 40.64 468.38 50.55 C 477.02 55.66 484.96 61.85 492.66 68.26 C 501.63 75.23 509.99 82.98 517.69 91.33 C 537.46 110.84 553.38 133.90 566.80 158.13 C 570.07 163.99 572.53 170.26 575.67 176.19 C 580.74 186.02 583.78 196.68 587.68 206.98 C 591.44 218.92 594.70 231.04 596.88 243.37 C 598.57 252.87 600.51 262.40 600.69 272.08 C 600.63 275.38 601.72 278.53 603.00 281.53 L 603.00 317.40 C 600.09 324.60 600.94 332.51 599.58 340.02 C 594.81 375.45 583.77 410.07 566.61 441.46 C 561.78 450.08 557.24 458.94 551.33 466.89 C 543.28 462.36 535.21 457.83 526.68 454.24 C 515.25 448.15 503.02 443.80 491.09 438.81 C 481.22 435.12 471.27 431.66 461.22 428.50 C 456.41 426.40 451.11 425.80 446.30 423.75 C 446.39 422.84 446.84 422.18 447.65 421.76 C 462.22 412.44 473.28 398.19 480.27 382.49 C 484.32 371.85 486.22 360.38 485.69 349.00 C 486.46 336.22 482.34 323.70 476.40 312.54 C 470.74 303.53 464.17 294.92 455.86 288.19 C 450.18 284.26 444.36 280.35 437.82 277.99 C 433.04 275.99 427.95 274.96 422.96 273.66 C 426.19 271.84 429.83 270.88 432.99 268.92 C 445.76 260.47 455.07 246.86 457.93 231.77 C 460.43 222.06 459.88 211.95 459.64 202.02 C 458.30 185.56 449.13 170.78 437.80 159.20 C 423.45 145.39 404.76 135.69 384.86 133.45 C 373.99 131.73 362.95 132.29 352.00 132.21 C 333.00 132.16 314.27 136.47 296.38 142.59 C 289.65 145.54 282.35 147.23 276.02 151.04 C 274.64 151.63 275.37 153.31 275.56 154.36 C 280.63 170.33 285.95 186.21 291.26 202.10 C 296.87 201.24 301.34 197.43 306.59 195.57 C 314.85 192.63 323.07 189.34 331.79 188.02 C 341.09 186.21 350.60 185.98 360.04 186.36 C 368.80 186.75 377.52 189.39 384.83 194.29 C 389.89 197.61 392.79 203.39 394.05 209.16 C 395.93 219.66 392.34 231.17 384.16 238.18 C 375.62 244.92 364.78 248.30 354.02 249.16 C 342.67 249.57 331.29 249.33 319.94 249.25 C 319.14 260.47 319.82 271.76 319.60 283.00 C 319.68 288.97 319.34 294.94 319.84 300.89 C 338.05 302.16 356.84 299.04 374.55 304.69 C 387.41 308.33 398.99 316.26 406.95 326.99 C 413.18 335.93 413.96 348.10 410.10 358.13 C 406.51 367.38 397.59 372.85 389.12 377.06 C 376.46 382.42 362.45 381.81 349.00 381.52 C 344.01 380.85 338.98 380.60 333.97 380.22 C 319.23 377.53 304.51 373.76 291.15 366.82 C 289.04 365.66 286.81 364.73 284.50 364.08 C 280.30 377.70 276.40 391.43 273.26 405.34 C 265.77 405.34 258.29 405.63 250.82 406.22 C 250.43 359.15 250.76 312.07 250.67 265.00 C 250.69 222.33 250.61 179.65 250.71 136.98 C 232.82 136.17 214.87 136.90 196.96 136.60 C 192.72 136.03 189.69 139.35 186.66 141.71 C 168.62 156.67 150.43 171.43 132.38 186.38 C 129.00 189.06 125.65 191.80 122.73 194.99 C 126.29 199.59 129.90 204.16 133.03 209.08 C 139.62 217.79 146.27 226.47 152.73 235.28 C 154.15 237.29 155.91 239.02 157.80 240.58 C 163.46 235.64 169.22 230.80 175.07 226.06 C 178.63 223.27 181.73 219.84 185.80 217.74 C 185.75 284.14 185.81 350.55 185.77 416.96 C 166.28 422.18 146.97 428.11 127.91 434.76 C 115.80 438.61 104.27 443.99 92.50 448.70 C 79.31 455.68 64.83 460.55 53.10 470.03 C 48.33 464.23 44.28 457.88 40.60 451.33 C 23.71 422.98 11.63 391.76 5.33 359.35 C -0.35 335.32 0.32 310.51 0.45 286.00 C 0.17 254.59 7.92 223.69 18.37 194.26 C 28.00 168.66 41.17 144.41 57.45 122.43 C 65.84 111.00 74.85 99.95 84.99 90.01 C 97.02 77.91 109.78 66.49 123.84 56.78 C 139.95 45.28 157.09 35.07 175.25 27.16 C 184.89 22.14 195.34 19.00 205.55 15.37 C 225.29 8.51 245.87 4.08 266.67 2.11 Z" />
<path fill="#f16821" opacity="1.00" d=" M 255.90 471.38 C 267.51 469.47 279.32 470.92 291.00 469.78 C 310.72 469.93 330.51 468.93 350.13 471.42 C 357.79 471.29 365.36 472.67 373.02 472.62 C 392.44 474.14 411.81 476.47 431.02 479.70 C 443.10 480.73 454.75 484.15 466.64 486.31 C 485.82 490.12 504.65 495.54 523.05 502.13 C 522.53 503.20 522.25 504.47 521.34 505.31 C 511.23 514.23 502.12 524.29 491.18 532.25 C 479.82 542.23 466.74 549.90 454.08 558.04 C 440.85 565.62 427.19 572.43 413.03 578.07 C 382.28 590.32 349.48 597.08 316.47 599.00 L 285.53 599.00 C 255.23 597.49 225.21 591.48 196.69 581.16 C 164.66 569.50 134.62 552.31 108.26 530.70 C 98.47 523.04 89.65 514.18 81.87 504.50 C 88.00 501.99 93.35 497.77 99.82 496.06 C 120.77 490.45 141.98 485.77 163.37 482.17 C 176.66 480.45 189.82 477.82 203.10 476.01 C 220.69 474.34 238.20 471.63 255.90 471.38 Z" />
</g>
<g id="#ffffffff">
<path fill="#ffffff" opacity="1.00" d=" M 296.38 142.59 C 314.27 136.47 333.00 132.16 352.00 132.21 C 362.95 132.29 373.99 131.73 384.86 133.45 C 404.76 135.69 423.45 145.39 437.80 159.20 C 449.13 170.78 458.30 185.56 459.64 202.02 C 459.88 211.95 460.43 222.06 457.93 231.77 C 455.07 246.86 445.76 260.47 432.99 268.92 C 429.83 270.88 426.19 271.84 422.96 273.66 C 427.95 274.96 433.04 275.99 437.82 277.99 C 444.36 280.35 450.18 284.26 455.86 288.19 C 464.17 294.92 470.74 303.53 476.40 312.54 C 482.34 323.70 486.46 336.22 485.69 349.00 C 486.22 360.38 484.32 371.85 480.27 382.49 C 473.28 398.19 462.22 412.44 447.65 421.76 C 446.84 422.18 446.39 422.84 446.30 423.75 C 451.11 425.80 456.41 426.40 461.22 428.50 C 471.27 431.66 481.22 435.12 491.09 438.81 C 503.02 443.80 515.25 448.15 526.68 454.24 C 535.21 457.83 543.28 462.36 551.33 466.89 C 545.41 475.37 539.80 484.14 532.60 491.63 C 529.57 495.27 525.92 498.37 523.05 502.13 C 504.65 495.54 485.82 490.12 466.64 486.31 C 454.75 484.15 443.10 480.73 431.02 479.70 C 411.81 476.47 392.44 474.14 373.02 472.62 C 365.36 472.67 357.79 471.29 350.13 471.42 C 330.51 468.93 310.72 469.93 291.00 469.78 C 279.32 470.92 267.51 469.47 255.90 471.38 C 238.20 471.63 220.69 474.34 203.10 476.01 C 189.82 477.82 176.66 480.45 163.37 482.17 C 141.98 485.77 120.77 490.45 99.82 496.06 C 93.35 497.77 88.00 501.99 81.87 504.50 C 79.32 500.97 75.91 498.22 72.98 495.04 C 65.52 487.39 59.43 478.60 53.10 470.03 C 64.83 460.55 79.31 455.68 92.50 448.70 C 104.27 443.99 115.80 438.61 127.91 434.76 C 146.97 428.11 166.28 422.18 185.77 416.96 C 185.81 350.55 185.75 284.14 185.80 217.74 C 181.73 219.84 178.63 223.27 175.07 226.06 C 169.22 230.80 163.46 235.64 157.80 240.58 C 155.91 239.02 154.15 237.29 152.73 235.28 C 146.27 226.47 139.62 217.79 133.03 209.08 C 129.90 204.16 126.29 199.59 122.73 194.99 C 125.65 191.80 129.00 189.06 132.38 186.38 C 150.43 171.43 168.62 156.67 186.66 141.71 C 189.69 139.35 192.72 136.03 196.96 136.60 C 214.87 136.90 232.82 136.17 250.71 136.98 C 250.61 179.65 250.69 222.33 250.67 265.00 C 250.76 312.07 250.43 359.15 250.82 406.22 C 258.29 405.63 265.77 405.34 273.26 405.34 C 276.40 391.43 280.30 377.70 284.50 364.08 C 286.81 364.73 289.04 365.66 291.15 366.82 C 304.51 373.76 319.23 377.53 333.97 380.22 C 338.98 380.60 344.01 380.85 349.00 381.52 C 362.45 381.81 376.46 382.42 389.12 377.06 C 397.59 372.85 406.51 367.38 410.10 358.13 C 413.96 348.10 413.18 335.93 406.95 326.99 C 398.99 316.26 387.41 308.33 374.55 304.69 C 356.84 299.04 338.05 302.16 319.84 300.89 C 319.34 294.94 319.68 288.97 319.60 283.00 C 319.82 271.76 319.14 260.47 319.94 249.25 C 331.29 249.33 342.67 249.57 354.02 249.16 C 364.78 248.30 375.62 244.92 384.16 238.18 C 392.34 231.17 395.93 219.66 394.05 209.16 C 392.79 203.39 389.89 197.61 384.83 194.29 C 377.52 189.39 368.80 186.75 360.04 186.36 C 350.60 185.98 341.09 186.21 331.79 188.02 C 323.07 189.34 314.85 192.63 306.59 195.57 C 301.34 197.43 296.87 201.24 291.26 202.10 C 285.95 186.21 280.63 170.33 275.56 154.36 C 275.37 153.31 274.64 151.63 276.02 151.04 C 282.35 147.23 289.65 145.54 296.38 142.59 Z" />
</g>
</svg>
